<svg xmlns="http://www.w3.org/2000/svg" width="1920" height="600" viewBox="0 0 1920 600">
  <defs>
    <linearGradient id="grad1" x1="0%" y1="0%" x2="100%" y2="100%">
      <stop offset="0%" style="stop-color:#1a3a5f;stop-opacity:1" />
      <stop offset="100%" style="stop-color:#0077cc;stop-opacity:1" />
    </linearGradient>
    <filter id="noise" x="0%" y="0%" width="100%" height="100%">
      <feTurbulence type="fractalNoise" baseFrequency="0.01" numOctaves="3" seed="1" />
      <feDisplacementMap in="SourceGraphic" scale="5" />
    </filter>
  </defs>
  <rect width="1920" height="600" fill="url(#grad1)" />
  <g filter="url(#noise)">
    <path d="M0,400 Q480,300 960,450 T1920,350" fill="none" stroke="rgba(255,255,255,0.1)" stroke-width="5" />
    <path d="M0,450 Q480,350 960,500 T1920,400" fill="none" stroke="rgba(255,255,255,0.1)" stroke-width="3" />
    <path d="M0,350 Q480,250 960,400 T1920,300" fill="none" stroke="rgba(255,255,255,0.1)" stroke-width="4" />
  </g>
  <g opacity="0.8">
    <circle cx="300" cy="200" r="20" fill="#ffffff" opacity="0.3" />
    <circle cx="800" cy="350" r="15" fill="#ffffff" opacity="0.2" />
    <circle cx="1200" cy="250" r="25" fill="#ffffff" opacity="0.2" />
    <circle cx="1600" cy="400" r="10" fill="#ffffff" opacity="0.4" />
    <circle cx="400" cy="450" r="8" fill="#ffffff" opacity="0.3" />
    <circle cx="1000" cy="150" r="12" fill="#ffffff" opacity="0.2" />
    <circle cx="1500" cy="300" r="18" fill="#ffffff" opacity="0.3" />
  </g>
  <g opacity="0.3">
    <text x="160" y="530" font-family="Arial" font-size="18" fill="#ffffff">802.1X</text>
    <text x="390" y="380" font-family="Arial" font-size="14" fill="#ffffff">RADIUS</text>
    <text x="720" y="490" font-family="Arial" font-size="16" fill="#ffffff">EAP-TLS</text>
    <text x="960" y="270" font-family="Arial" font-size="20" fill="#ffffff">Authentication</text>
    <text x="1200" y="440" font-family="Arial" font-size="15" fill="#ffffff">MAB</text>
    <text x="1500" y="320" font-family="Arial" font-size="17" fill="#ffffff">Security</text>
    <text x="1700" y="480" font-family="Arial" font-size="13" fill="#ffffff">Authorization</text>
  </g>
</svg>
